<svg width="103" height="73" viewBox="0 0 103 73" fill="none" xmlns="http://www.w3.org/2000/svg">
<path d="M67.4671 65.6293C70.2093 72.2422 99.2458 71.8834 97.7666 71.3249C97.1139 71.0784 97.8673 60.1174 98.9875 47.3543C91.1754 48.5481 75.1985 49.7209 73.7885 44.8617C72.3784 40.0025 66.9905 39.5904 64.4727 39.9917C60.9623 40.1872 53.5419 40.5624 51.9431 40.4995C49.9446 40.4209 37.415 40.9287 37.0726 36.9121C36.7987 33.6989 27.0187 33.8478 22.1629 34.3239L1.21913 37.0026L1.31341 55.5206C17.8265 52.9678 22.8361 55.3667 23.2767 56.8852C27.4587 65.0559 30.3581 67.6719 47.4826 64.843C61.1822 62.5798 66.5138 64.4242 67.4671 65.6293Z" fill="white" stroke="black"/>
<path d="M39.225 1.97962L1.36081 10.4976L1.49584 37.0234L22.4396 34.3447C27.2954 33.8686 37.0755 33.7197 37.3493 36.9329C37.6917 40.9495 50.2213 40.4417 52.2198 40.5203C53.8186 40.5832 61.2391 40.208 64.7495 40.0125C67.2672 39.6112 72.6551 40.0233 74.0652 44.8825C75.4752 49.7417 91.4521 48.5689 99.2642 47.3751C100.175 37.0007 101.328 25.4355 102.165 17.466C99.765 14.8697 95.1702 17.1908 91.6532 17.5529C88.1363 17.9149 84.6587 17.2777 83.2778 14.221C82.9724 11.8071 80.6301 9.44656 79.4971 8.568C78.031 7.67634 73.5725 6.53351 67.467 9.09546C59.8352 12.2979 54.3198 12.5813 51.3025 12.9629C48.2852 13.3446 48.4817 8.34847 47.1401 4.29259C46.0669 1.04789 41.4162 1.39865 39.225 1.97962Z" fill="#FF0000" stroke="black"/>
</svg>
